<svg width="1641" height="66" viewBox="0 0 1641 66" fill="none" xmlns="http://www.w3.org/2000/svg">
<path d="M485.25 27.0964C650.25 27.0964 705 7.26611 826.125 7.26611C947.25 7.26611 954.75 46.1698 1167 37.39C1379.25 28.6102 1440 66 1440 66H0C0 66 102.75 1.28123e-06 222.375 0C342 -1.28123e-06 320.25 27.0964 485.25 27.0964Z" fill="black"/>
<path d="M1155.75 27.0964C990.75 27.0964 936 7.26611 814.875 7.26611C693.75 7.26611 686.25 46.1698 474 37.39C261.75 28.6102 201 66 201 66H1641C1641 66 1538.25 1.28123e-06 1418.62 0C1299 -1.28123e-06 1320.75 27.0964 1155.75 27.0964Z" fill="black"/>
</svg>
